<svg width="32" height="32" viewBox="0 0 32 32" fill="none" xmlns="http://www.w3.org/2000/svg">
<g clip-path="url(#clip0_24_237)">
<path d="M26.7663 5.9705C26.8397 5.90203 26.8983 5.81798 26.9382 5.72396C26.9779 5.62995 26.998 5.52814 26.9971 5.42536C26.9961 5.32259 26.9741 5.22123 26.9325 5.12806C26.8909 5.03488 26.8307 4.95206 26.756 4.88511C26.6771 4.81465 26.599 4.74455 26.5214 4.67484C25.9296 4.14411 25.3176 3.59459 24.6776 3.12584C19.7879 -0.463449 14.7071 -0.483642 9.57747 1.4199C4.93304 3.14213 1.95048 6.58769 0.711359 11.659C-0.670898 17.3249 0.539517 22.3234 4.31149 26.5173C4.40962 26.6257 4.50978 26.7341 4.60979 26.8375C6.63603 28.9509 9.15979 30.2557 11.1595 31.1634C12.0178 31.5545 16.4217 32.0292 17.6133 31.8441C24.6946 30.7412 29.3545 26.5757 30.9777 19.6068C31.2875 18.2418 31.4419 16.8434 31.4374 15.4406C31.4304 13.9674 31.1928 12.5052 30.7341 11.1118C30.7006 11.0076 30.6456 10.9124 30.5728 10.8329C30.5 10.7535 30.4113 10.6918 30.3128 10.6523C30.2146 10.6129 30.109 10.5965 30.004 10.6045C29.8989 10.6125 29.7967 10.6447 29.705 10.6986L29.6858 10.7101C29.54 10.7972 29.428 10.935 29.3698 11.0995C29.3114 11.2639 29.3105 11.4444 29.367 11.6095C29.7811 12.8072 29.9923 14.0709 29.991 15.3441C29.9767 16.8715 29.7784 18.391 29.4008 19.8668C28.282 24.1079 25.6072 27.199 21.2235 29.3133C16.7669 31.5386 10.3758 29.2888 8.67537 28.1179C6.79588 26.7779 5.1513 25.1107 3.81357 23.1894C1.71561 20.0912 1.24493 15.6385 2.37229 11.5676C2.89986 9.68808 3.82185 7.9545 5.07146 6.49265C6.32105 5.0308 7.86692 3.87731 9.59695 3.11581C14.0977 1.16505 18.6137 0.82094 23.0184 3.74248C23.6088 4.13462 25.1147 5.36778 25.8758 5.99752C26.0034 6.10316 26.1628 6.1583 26.3256 6.15322C26.4887 6.14811 26.6445 6.08309 26.7659 5.96966L26.7663 5.9705Z" fill="#3C60FC"/>
<path d="M14.0478 20.4786C14.3494 20.1796 14.5151 20.0282 14.6668 19.8629C19.53 14.564 24.8559 9.79336 30.2133 5.05964C30.4158 4.88083 30.6231 4.65273 30.8627 4.58867C31.1516 4.51167 31.6228 4.60023 31.7519 4.76386C31.8368 4.88479 31.8904 5.02642 31.9076 5.17517C31.9249 5.32392 31.9051 5.47481 31.8505 5.61335C31.7246 5.95774 31.4178 6.25269 31.1396 6.51047C29.479 8.04942 27.7719 9.53534 26.1406 11.106C22.7305 14.3906 19.3423 17.6996 15.9756 21.033C14.5004 22.4905 13.9327 22.5496 12.5752 20.9922C11.6817 19.9666 8.985 16.5099 8.15915 15.4207C8.04247 15.2514 7.93854 15.073 7.8483 14.8869C7.66202 14.5424 7.54025 14.1628 7.91051 13.8957C8.32297 13.5982 8.61566 13.9086 8.86016 14.2319C9.10758 14.5591 9.31855 14.9186 9.58345 15.2287C10.4059 16.1911 13.1592 19.4634 14.0478 20.4786Z" fill="#3C60FC"/>
</g>
<defs>
<clipPath id="clip0_24_237">
<rect width="32" height="32" fill="white"/>
</clipPath>
</defs>
</svg>
