<svg width="32" height="32" viewBox="0 0 32 32" fill="none" xmlns="http://www.w3.org/2000/svg">
<path d="M21.872 22.7903H10.128C9.98233 22.8063 9.84771 22.8761 9.75018 22.9864C9.65265 23.0966 9.59914 23.2394 9.6 23.3871C9.6 23.5496 9.66406 23.7055 9.77808 23.8205C9.8921 23.9354 10.0467 24 10.208 24H21.952C22.1133 24 22.2679 23.9354 22.3819 23.8205C22.4959 23.7055 22.56 23.5496 22.56 23.3871C22.5611 23.2999 22.5433 23.2135 22.5078 23.1339C22.4722 23.0544 22.4198 22.9837 22.3542 22.9268C22.2886 22.8699 22.2114 22.8282 22.1281 22.8046C22.0448 22.7811 21.9574 22.7762 21.872 22.7903Z" fill="#F5F7FF"/>
<path d="M15.536 21.0645C15.5907 21.1186 15.6558 21.1609 15.7274 21.1887C15.799 21.2164 15.8754 21.229 15.952 21.2258C16.0259 21.2268 16.0993 21.2131 16.168 21.1855C16.2367 21.1578 16.2992 21.1167 16.352 21.0645L21.6 16.129C21.6566 16.0734 21.7016 16.0069 21.7323 15.9335C21.763 15.8601 21.7789 15.7813 21.7789 15.7016C21.7789 15.6219 21.763 15.543 21.7323 15.4696C21.7016 15.3962 21.6566 15.3298 21.6 15.2742C21.4865 15.1628 21.3344 15.1005 21.176 15.1005C21.0176 15.1005 20.8655 15.1628 20.752 15.2742L16.56 19.2258V8.61288C16.552 8.46728 16.49 8.33005 16.3862 8.22845C16.2825 8.12685 16.1446 8.06832 16 8.06449C15.9209 8.06233 15.8422 8.07618 15.7685 8.1052C15.6949 8.13422 15.6277 8.17784 15.571 8.23347C15.5143 8.2891 15.4693 8.35562 15.4385 8.4291C15.4078 8.50257 15.392 8.58152 15.392 8.66126V19.3548L11.2 15.2258C11.0798 15.1454 10.9351 15.1107 10.7919 15.1279C10.6486 15.1451 10.5161 15.2131 10.418 15.3197C10.3199 15.4264 10.2626 15.5647 10.2564 15.71C10.2502 15.8553 10.2954 15.9981 10.384 16.1129L15.536 21.0645Z" fill="#F5F7FF"/>
</svg>
