<svg width="60" height="60" viewBox="0 0 60 60" fill="none" xmlns="http://www.w3.org/2000/svg">
<path d="M52.5 24.375C52.0027 24.375 51.5258 24.5725 51.1742 24.9242C50.8225 25.2758 50.625 25.7527 50.625 26.25V41.25C50.625 41.7473 50.4275 42.2242 50.0758 42.5758C49.7242 42.9275 49.2473 43.125 48.75 43.125H11.25C10.7527 43.125 10.2758 42.9275 9.92418 42.5758C9.57254 42.2242 9.375 41.7473 9.375 41.25V26.25C9.375 25.7527 9.17746 25.2758 8.82582 24.9242C8.47419 24.5725 7.99728 24.375 7.5 24.375C7.00272 24.375 6.52581 24.5725 6.17417 24.9242C5.82254 25.2758 5.625 25.7527 5.625 26.25V41.25C5.62631 42.7413 6.21981 44.1711 7.275 45.225C8.32888 46.2802 9.75866 46.8737 11.25 46.875H48.75C50.2413 46.8737 51.6711 46.2802 52.725 45.225C53.7802 44.1711 54.3737 42.7413 54.375 41.25V26.25C54.375 25.7527 54.1775 25.2758 53.8258 24.9242C53.4742 24.5725 52.9973 24.375 52.5 24.375Z" fill="#F5F7FF"/>
<path d="M28.875 35.25C29.1995 35.4934 29.5943 35.625 30 35.625C30.4057 35.625 30.8004 35.4934 31.125 35.25L53.2687 18.6375C53.6142 18.377 53.8589 18.0051 53.9614 17.5847C54.064 17.1644 54.018 16.7215 53.8312 16.3313C53.552 15.7544 53.1781 15.2283 52.725 14.775C51.6711 13.7198 50.2413 13.1263 48.75 13.125H11.25C9.75865 13.1263 8.32887 13.7198 7.27499 14.775C6.8219 15.2283 6.44798 15.7544 6.16874 16.3313C5.98202 16.7215 5.93602 17.1644 6.03854 17.5847C6.14106 18.0051 6.38579 18.377 6.73124 18.6375L28.875 35.25ZM11.25 16.875H48.75C48.9239 16.8476 49.1011 16.8476 49.275 16.875L30 31.4062L10.725 16.875C10.8989 16.8476 11.0761 16.8476 11.25 16.875Z" fill="#F5F7FF"/>
</svg>
