<svg width="61" height="61" viewBox="0 0 61 61" fill="none" xmlns="http://www.w3.org/2000/svg">
<path d="M49.1963 45.2331L47.4555 44.2263C47.7121 43.4825 47.9173 42.7218 48.0694 41.9498H50.0761C52.7339 41.8542 51.8914 38.6293 52.0163 36.9212C52.0156 36.4072 51.8109 35.9143 51.4472 35.5508C51.0835 35.1873 50.5904 34.9828 50.0761 34.9821H48.0748C47.9226 34.2101 47.7174 33.4494 47.4608 32.7055L49.2043 31.6988C49.4254 31.5709 49.6192 31.4007 49.7744 31.198C49.9296 30.9952 50.0433 30.7638 50.109 30.5171C50.1747 30.2704 50.191 30.0131 50.1571 29.7601C50.1232 29.507 50.0396 29.2631 49.9113 29.0424C48.9625 27.6371 48.0508 24.4043 45.7173 25.6581L43.9738 26.6649C43.4545 26.0729 42.897 25.5156 42.3047 24.9967L43.312 23.2541C44.5664 20.9324 41.3292 20.0106 39.9259 19.0623C39.705 18.9338 39.4608 18.8502 39.2074 18.8163C38.9541 18.7824 38.6965 18.7989 38.4495 18.8648C38.2025 18.9307 37.971 19.0447 37.7683 19.2003C37.5655 19.3559 37.3955 19.5501 37.2681 19.7716L36.2635 21.5088C35.517 21.2572 34.7553 21.0531 33.9831 20.8979V18.9003C33.8874 16.2439 30.6608 17.0859 28.9518 16.9611C28.4379 16.9625 27.9455 17.1673 27.5824 17.5308C27.2193 17.8942 27.015 18.3866 27.0143 18.9003V20.9058C26.241 21.0608 25.4785 21.2649 24.7312 21.5168L23.7292 19.7795C23.6015 19.5583 23.4314 19.3644 23.2287 19.209C23.0259 19.0536 22.7944 18.9397 22.5476 18.8738C22.3007 18.8079 22.0432 18.7914 21.7899 18.8251C21.5366 18.8588 21.2925 18.9421 21.0714 19.0703C19.6654 20.0186 16.4282 20.9297 17.6827 23.2621L18.69 25.0047C18.0979 25.5229 17.5412 26.0803 17.0236 26.6729L15.2801 25.6661C12.9571 24.4096 12.0322 27.6478 11.0834 29.0503C10.9552 29.2713 10.8718 29.5153 10.8381 29.7684C10.8043 30.0216 10.8209 30.2789 10.8868 30.5257C10.9527 30.7724 11.0667 31.0038 11.2222 31.2064C11.3777 31.4091 11.5717 31.5791 11.793 31.7067L13.5339 32.7135C13.2791 33.458 13.074 34.2185 12.9199 34.99H10.9239C8.26611 35.0857 9.1113 38.3105 8.98638 40.0186C8.98708 40.5322 9.19135 41.0247 9.55449 41.3881C9.91762 41.7515 10.41 41.9564 10.9239 41.9578H12.9306C13.0843 42.7294 13.2894 43.49 13.5445 44.2343L11.8037 45.2411C9.56046 46.6304 11.8967 49.0344 12.6409 50.5539C12.7685 50.7751 12.9387 50.969 13.1415 51.1244C13.3444 51.2797 13.5759 51.3935 13.8229 51.4591C14.0698 51.5248 14.3273 51.541 14.5806 51.5069C14.8339 51.4729 15.0779 51.3891 15.2987 51.2605L17.0422 50.2564C17.5598 50.8481 18.1166 51.4045 18.7086 51.9219L17.7013 53.6672C17.5729 53.8881 17.4894 54.1323 17.4556 54.3857C17.4219 54.639 17.4386 54.8965 17.5048 55.1434C17.571 55.3903 17.6854 55.6216 17.8414 55.8241C17.9973 56.0267 18.1918 56.1964 18.4136 56.3236C19.9233 57.0647 22.3738 59.4023 23.7292 57.1603L24.7339 55.4204C25.4809 55.6738 26.2435 55.8788 27.0169 56.034V58.0396C27.11 60.696 30.3365 59.8512 32.0455 59.9761C32.5596 59.9761 33.0527 59.7722 33.4165 59.4091C33.7803 59.046 33.985 58.5534 33.9857 58.0396V56.034C34.7583 55.8791 35.5201 55.6741 36.2661 55.4204L37.2708 57.1603C38.6342 59.4023 41.09 57.062 42.5864 56.3236C42.808 56.1962 43.0022 56.0263 43.1579 55.8237C43.3136 55.621 43.4277 55.3896 43.4937 55.1428C43.5596 54.8959 43.5761 54.6385 43.5422 54.3853C43.5082 54.132 43.4246 53.888 43.296 53.6672L42.2887 51.9219C42.881 51.4039 43.4386 50.8475 43.9578 50.2564L45.7013 51.2605C45.9221 51.3891 46.1661 51.4729 46.4194 51.5069C46.6727 51.541 46.9302 51.5248 47.1771 51.4591C47.4241 51.3935 47.6556 51.2797 47.8585 51.1244C48.0613 50.969 48.2315 50.7751 48.3591 50.5539C49.106 49.0264 51.4422 46.6224 49.1963 45.2331ZM48.3405 46.9704L46.7937 49.648C46.7763 49.6741 46.7498 49.6929 46.7194 49.7008C46.689 49.7086 46.6568 49.705 46.6289 49.6905L44.2236 48.3039C44.0357 48.1946 43.8147 48.1565 43.601 48.1965C43.3873 48.2365 43.1951 48.3519 43.0595 48.5217C42.3231 49.4392 41.4889 50.2738 40.5718 51.0108C39.5963 51.7492 41.1033 53.2182 41.7412 54.5783C41.756 54.6064 41.7596 54.639 41.7512 54.6696C41.7428 54.7002 41.7231 54.7264 41.696 54.743L39.0169 56.2864C38.9888 56.2997 38.957 56.3027 38.9269 56.2949C38.8967 56.2872 38.8703 56.2691 38.8522 56.2439L37.4674 53.8531C37.3589 53.6645 37.1863 53.5211 36.981 53.449C36.7756 53.3769 36.5512 53.3807 36.3485 53.46C35.2529 53.89 34.1128 54.1965 32.9492 54.3738C32.7341 54.4062 32.5378 54.5146 32.3959 54.6793C32.254 54.8441 32.1759 55.0542 32.1757 55.2716V58.0422C32.1751 58.0744 32.162 58.1051 32.1392 58.1279C32.1164 58.1507 32.0857 58.1638 32.0535 58.1644H28.9545C28.9225 58.1637 28.8921 58.1506 28.8697 58.1277C28.8474 58.1049 28.8349 58.0742 28.8349 58.0422V55.253C28.8342 55.0358 28.7559 54.8259 28.6141 54.6613C28.4723 54.4967 28.2763 54.3881 28.0615 54.3552C26.897 54.1779 25.756 53.8714 24.6595 53.4414C23.5326 52.9606 23.0063 55.0033 22.1558 56.2359C22.1373 56.2607 22.1109 56.2785 22.0809 56.2862C22.0509 56.2939 22.0192 56.2912 21.991 56.2784L19.3146 54.735C19.3007 54.7273 19.2885 54.7169 19.2787 54.7044C19.2688 54.6919 19.2616 54.6775 19.2574 54.6622C19.2532 54.6468 19.2521 54.6308 19.2542 54.615C19.2562 54.5993 19.2614 54.5841 19.2694 54.5703L20.6568 52.1663C20.7639 51.9775 20.8003 51.7567 20.7594 51.5435C20.7185 51.3303 20.603 51.1386 20.4336 51.0028C19.5149 50.2666 18.6798 49.4319 17.9432 48.5138C17.2017 47.5362 15.7399 49.045 14.3764 49.6826C14.3486 49.6991 14.3153 49.7039 14.2839 49.6959C14.2525 49.688 14.2256 49.6679 14.209 49.6401L12.6648 46.9624C12.6523 46.9335 12.6517 46.9008 12.6631 46.8715C12.6745 46.8421 12.6971 46.8185 12.7259 46.8057L15.1179 45.4191C15.3059 45.3107 15.4488 45.1384 15.5205 44.9337C15.5922 44.7289 15.588 44.5053 15.5086 44.3034C15.0772 43.2091 14.7679 42.0706 14.5864 40.9085C14.4296 39.6866 12.415 40.2603 10.9159 40.1381C10.884 40.1374 10.8536 40.1243 10.8312 40.1014C10.8089 40.0786 10.7963 40.0479 10.7963 40.0159V36.9239C10.7963 36.8919 10.8089 36.8613 10.8312 36.8384C10.8536 36.8156 10.884 36.8024 10.9159 36.8017C12.4096 36.6848 14.4402 37.2453 14.5864 36.0314C14.7637 34.8678 15.0695 33.7274 15.498 32.6312C15.5775 32.4289 15.5818 32.2048 15.5101 31.9996C15.4384 31.7944 15.2955 31.6217 15.1073 31.5128L12.7153 30.1288C12.7014 30.1211 12.6892 30.1107 12.6793 30.0982C12.6695 30.0857 12.6623 30.0713 12.6581 30.056C12.6539 30.0406 12.6528 30.0246 12.6548 30.0089C12.6569 29.9931 12.6621 29.9779 12.6701 29.9641L14.2143 27.2865L14.3791 27.244L16.7711 28.6306C16.9593 28.7396 17.1805 28.7773 17.3942 28.7368C17.6079 28.6964 17.7999 28.5804 17.9352 28.4102C18.6748 27.4912 19.5125 26.6557 20.4336 25.9185C21.4116 25.1906 19.902 23.703 19.2641 22.3536C19.2513 22.3254 19.2486 22.2937 19.2563 22.2637C19.264 22.2338 19.2818 22.2073 19.3066 22.1889L21.9831 20.6429C22.0114 20.6272 22.0447 20.6232 22.0759 20.6317C22.1071 20.6401 22.1339 20.6603 22.1505 20.688L23.5379 23.0788C23.6455 23.2675 23.8176 23.4112 24.0227 23.4834C24.2277 23.5556 24.4519 23.5515 24.6542 23.4719C25.751 23.043 26.8919 22.7365 28.0561 22.5581C29.2734 22.412 28.71 20.3825 28.8296 18.8923C28.8296 18.8603 28.8421 18.8297 28.8644 18.8068C28.8868 18.784 28.9172 18.7708 28.9492 18.7701H32.0402C32.0724 18.7708 32.1031 18.7839 32.1259 18.8066C32.1487 18.8294 32.1618 18.8601 32.1625 18.8923V21.6682C32.1625 21.8852 32.2402 22.095 32.3816 22.2597C32.5229 22.4244 32.7186 22.5331 32.9332 22.5661C34.0974 22.7445 35.2384 23.051 36.3352 23.4799C37.4648 23.958 37.9724 21.9471 38.8389 20.688C38.8469 20.674 38.8575 20.6617 38.8703 20.6519C38.8831 20.642 38.8976 20.6348 38.9132 20.6306C38.9288 20.6264 38.945 20.6253 38.961 20.6274C38.977 20.6295 38.9924 20.6348 39.0063 20.6429L41.6827 22.1889L41.7279 22.3536L40.3405 24.7443C40.2312 24.9321 40.193 25.153 40.2331 25.3666C40.2731 25.5802 40.3886 25.7723 40.5585 25.9078C41.4759 26.6464 42.3109 27.4818 43.0488 28.3995C43.7771 29.3744 45.2601 27.8683 46.6156 27.2307C46.6436 27.2169 46.6757 27.2135 46.7059 27.2213C46.7362 27.2291 46.7626 27.2476 46.7804 27.2732L48.3405 29.9615C48.356 29.9894 48.36 30.0223 48.3515 30.053C48.3431 30.0838 48.3229 30.1101 48.2953 30.1262L45.9033 31.5102C45.7151 31.619 45.5719 31.7916 45.4998 31.9967C45.4277 32.2017 45.4313 32.4259 45.51 32.6285C45.9385 33.725 46.2451 34.8652 46.4243 36.0287C46.5704 37.2427 48.601 36.6822 50.092 36.7991C50.1245 36.7991 50.1555 36.8119 50.1785 36.8348C50.2014 36.8578 50.2143 36.8888 50.2143 36.9212V40.0106C50.2143 40.043 50.2014 40.0741 50.1785 40.097C50.1555 40.12 50.1245 40.1328 50.092 40.1328H47.3066C47.0894 40.1323 46.8792 40.2098 46.7143 40.3512C46.5494 40.4926 46.4408 40.6885 46.4083 40.9032C46.2291 42.0666 45.9225 43.2069 45.494 44.3034C45.4149 44.5056 45.4111 44.7295 45.4833 44.9342C45.5555 45.139 45.6989 45.3111 45.8874 45.4191L48.2794 46.8057C48.2944 46.8123 48.308 46.8218 48.3192 46.8337C48.3305 46.8457 48.3392 46.8597 48.3449 46.8751C48.3506 46.8905 48.3532 46.9068 48.3524 46.9232C48.3517 46.9396 48.3476 46.9556 48.3405 46.9704ZM30.5013 26.0486C14.0814 26.5799 14.0841 50.3653 30.5013 50.8833C46.9213 50.3626 46.9159 26.564 30.5013 26.0486ZM30.5013 49.0663C27.7175 49.0222 25.0626 47.886 23.1096 45.9029C21.1565 43.9197 20.0619 41.2486 20.0619 38.4659C20.0619 35.6833 21.1565 33.0121 23.1096 31.029C25.0626 29.0458 27.7175 27.9096 30.5013 27.8656C33.2851 27.9096 35.94 29.0458 37.8931 31.029C39.8461 33.0121 40.9407 35.6833 40.9407 38.4659C40.9407 41.2486 39.8461 43.9197 37.8931 45.9029C35.94 47.886 33.2851 49.0222 30.5013 49.0663ZM59.5937 3.88397e-06H1.40897C1.1679 3.88397e-06 0.936696 0.0957192 0.766231 0.266094C0.595766 0.436468 0.5 0.667545 0.5 0.908491L0.5 50.5831C0.5 50.824 0.595766 51.0551 0.766231 51.2255C0.936696 51.3959 1.1679 51.4916 1.40897 51.4916H8.68073C8.92181 51.4916 9.153 51.3959 9.32347 51.2255C9.49393 51.0551 9.5897 50.824 9.5897 50.5831C9.5897 50.3421 9.49393 50.1111 9.32347 49.9407C9.153 49.7703 8.92181 49.6746 8.68073 49.6746H2.31794V10.2988H58.6821V49.6746H52.3272C52.0862 49.6746 51.855 49.7703 51.6845 49.9407C51.514 50.1111 51.4183 50.3421 51.4183 50.5831C51.4183 50.824 51.514 51.0551 51.6845 51.2255C51.855 51.3959 52.0862 51.4916 52.3272 51.4916H59.599C59.8396 51.4909 60.0701 51.3948 60.24 51.2245C60.4099 51.0542 60.5053 50.8236 60.5053 50.5831V0.908491C60.5053 0.788963 60.4817 0.67061 60.4359 0.560213C60.39 0.449817 60.3228 0.349548 60.2381 0.265153C60.1535 0.180757 60.0529 0.113894 59.9424 0.0683944C59.8318 0.0228952 59.7133 -0.000345613 59.5937 3.88397e-06ZM58.6821 8.48187H2.31794V1.81698H58.6821V8.48187ZM53.1246 5.7936C52.2688 4.96746 53.6056 3.66849 54.411 4.51056C55.2163 5.35264 53.9565 6.64099 53.1246 5.7936ZM48.011 5.15075C48.0235 4.91865 48.1246 4.70019 48.2935 4.54033C48.4623 4.38047 48.686 4.29137 48.9186 4.29137C49.1512 4.29137 49.3749 4.38047 49.5437 4.54033C49.7126 4.70019 49.8137 4.91865 49.8262 5.15075C49.8051 5.37599 49.7006 5.58523 49.5332 5.73754C49.3658 5.88984 49.1476 5.97425 48.9213 5.97425C48.6949 5.97425 48.4767 5.88984 48.3093 5.73754C48.142 5.58523 48.0375 5.37599 48.0163 5.15075H48.011ZM43.4289 5.7936C42.5811 4.96746 43.8834 3.69771 44.7126 4.49728C45.5419 5.29686 44.2635 6.64099 43.4342 5.7936H43.4289ZM33.191 32.6737L29.5525 44.7868C29.482 45.0176 29.3227 45.2109 29.1096 45.3242C28.8965 45.4375 28.6471 45.4616 28.4163 45.3912C28.1854 45.3207 27.992 45.1615 27.8786 44.9485C27.7652 44.7355 27.7411 44.4863 27.8116 44.2556L31.4475 32.1424C31.5223 31.9165 31.6825 31.7288 31.8939 31.6194C32.1053 31.51 32.3512 31.4876 32.5789 31.557C32.8066 31.6264 32.9981 31.782 33.1125 31.9907C33.2269 32.1994 33.2551 32.4445 33.191 32.6737ZM26.4694 35.3699L24.3804 38.5018L26.4694 41.631C26.5358 41.7303 26.5819 41.8416 26.6051 41.9587C26.6284 42.0757 26.6284 42.1962 26.605 42.3133C26.5817 42.4303 26.5356 42.5416 26.4692 42.6408C26.4028 42.74 26.3176 42.8252 26.2183 42.8915C26.119 42.9578 26.0076 43.0039 25.8905 43.0271C25.7734 43.0504 25.6528 43.0503 25.5357 43.027C25.4186 43.0037 25.3072 42.9576 25.2079 42.8913C25.1087 42.8249 25.0235 42.7397 24.9571 42.6405L22.5332 39.0039C22.4332 38.855 22.3799 38.6798 22.3799 38.5005C22.3799 38.3212 22.4332 38.1459 22.5332 37.9971L24.9518 34.3631C25.0854 34.162 25.2935 34.0221 25.5302 33.9743C25.767 33.9265 26.013 33.9746 26.2143 34.1081C26.4155 34.2416 26.5555 34.4496 26.6033 34.6862C26.6512 34.9228 26.603 35.1688 26.4694 35.3699ZM36.0375 34.3631L38.4615 37.9971C38.5614 38.1459 38.6148 38.3212 38.6148 38.5005C38.6148 38.6798 38.5614 38.855 38.4615 39.0039L36.0375 42.6405C35.9712 42.7397 35.886 42.8249 35.7867 42.8913C35.6875 42.9576 35.5761 43.0037 35.459 43.027C35.3419 43.0503 35.2213 43.0504 35.1042 43.0271C34.9871 43.0039 34.8757 42.9578 34.7764 42.8915C34.6771 42.8252 34.5919 42.74 34.5255 42.6408C34.4591 42.5416 34.413 42.4303 34.3896 42.3133C34.3663 42.1962 34.3663 42.0757 34.3896 41.9587C34.4128 41.8416 34.4589 41.7303 34.5252 41.631L36.6116 38.5018L34.5252 35.3699C34.3917 35.1684 34.3437 34.9221 34.3918 34.6853C34.4398 34.4484 34.5801 34.2403 34.7817 34.1068C34.9833 33.9733 35.2297 33.9253 35.4667 33.9734C35.7037 34.0214 35.9119 34.1616 36.0455 34.3631H36.0375Z" fill="#F5F7FF"/>
</svg>
