<svg width="60" height="60" viewBox="0 0 60 60" fill="none" xmlns="http://www.w3.org/2000/svg">
<path d="M53.9437 15.2065C53.8232 15.0571 53.6772 14.9301 53.5125 14.8315C53.931 14.0249 54.2219 13.1584 54.375 12.2627C54.4342 11.9039 54.3877 11.5355 54.2412 11.2026C54.0947 10.8697 53.8546 10.5866 53.55 10.3877C53.2439 10.1861 52.8853 10.0787 52.5187 10.0787C52.1522 10.0787 51.7936 10.1861 51.4875 10.3877C50.1869 11.2328 48.7353 11.8185 47.2125 12.1127C45.4627 10.4703 43.2482 9.40857 40.8719 9.07294C38.4957 8.73731 36.0737 9.14413 33.9375 10.2377C31.7077 11.405 29.9276 13.2785 28.8759 15.5652C27.8242 17.8518 27.5601 20.4225 28.125 22.8752C28.2245 23.3725 28.5174 23.8099 28.9393 24.0912C29.3613 24.3725 29.8777 24.4747 30.375 24.3752C30.8723 24.2758 31.3097 23.9829 31.591 23.5609C31.8723 23.1389 31.9745 22.6225 31.875 22.1252C31.4867 20.4969 31.6432 18.7861 32.3206 17.2553C32.998 15.7244 34.1588 14.458 35.625 13.6502C37.2052 12.8481 39.0082 12.5969 40.7475 12.9366C42.4868 13.2763 44.0627 14.1874 45.225 15.5252C45.4376 15.7389 45.6985 15.8982 45.9858 15.9896C46.273 16.081 46.578 16.1018 46.875 16.0502H47.3437C47.131 16.2705 46.9755 16.5394 46.8907 16.8336C46.8059 17.1278 46.7945 17.4383 46.8574 17.738C46.9203 18.0376 47.0556 18.3173 47.2515 18.5526C47.4474 18.7879 47.698 18.9716 47.9812 19.0877C47.7406 19.2851 47.5529 19.5393 47.4351 19.8274C47.3173 20.1154 47.273 20.4283 47.3062 20.7377C47.6173 24.7325 46.9442 28.7426 45.3457 32.4167C43.7472 36.0909 41.2722 39.3171 38.1375 41.8127C34.9224 44.5716 31.0318 46.4265 26.8642 47.1876C22.6965 47.9486 18.4015 47.5885 14.4187 46.144C17.5855 45.6134 20.5371 44.1961 22.9312 42.0565C23.1728 41.7806 23.3282 41.44 23.3782 41.0768C23.4282 40.7135 23.3706 40.3436 23.2125 40.0127C23.0565 39.6849 22.8087 39.4094 22.4992 39.2197C22.1896 39.03 21.8317 38.9342 21.4687 38.944C20.3996 38.9356 19.3445 38.6988 18.3744 38.2493C17.4042 37.7998 16.5414 37.148 15.8437 36.3377C16.4975 36.2119 17.1292 35.9908 17.7187 35.6815C18.0713 35.5082 18.3605 35.2285 18.5455 34.882C18.7306 34.5355 18.8021 34.1396 18.75 33.7502C18.6996 33.3744 18.5364 33.0227 18.282 32.7415C18.0276 32.4603 17.6939 32.2629 17.325 32.1752C16.0947 31.8809 14.9481 31.3088 13.9731 30.5028C12.9981 29.6967 12.2205 28.6782 11.7 27.5252C12.15 27.5252 12.6 27.619 13.0875 27.6377C13.4828 27.667 13.8772 27.5703 14.2141 27.3614C14.5509 27.1526 14.813 26.8423 14.9625 26.4752C15.0965 26.1083 15.1124 25.7086 15.0082 25.3321C14.904 24.9556 14.6848 24.6211 14.3812 24.3752C11.25 21.5252 10.4812 18.469 10.9312 16.3127C14.4678 20.0563 19.0356 22.6664 24.0562 23.8127C24.3025 23.8595 24.5555 23.8573 24.8009 23.8063C25.0463 23.7553 25.2792 23.6565 25.4864 23.5155C25.6936 23.3744 25.871 23.194 26.0084 22.9844C26.1459 22.7748 26.2407 22.5402 26.2875 22.294C26.3343 22.0478 26.3321 21.7947 26.2811 21.5493C26.2301 21.304 26.1313 21.071 25.9902 20.8638C25.8492 20.6566 25.6687 20.4792 25.4592 20.3418C25.2496 20.2043 25.015 20.1095 24.7687 20.0627C19.6862 18.8718 15.1698 15.9647 11.9812 11.8315C11.8126 11.6178 11.5995 11.4433 11.3566 11.3203C11.1138 11.1972 10.8471 11.1285 10.575 11.119C10.3008 11.1088 10.0277 11.159 9.77501 11.2659C9.52231 11.3728 9.29615 11.5339 9.1125 11.7377C7.89815 13.3382 7.19333 15.2669 7.08967 17.2732C6.98601 19.2796 7.4883 21.2707 8.53125 22.9877H8.3625C8.08534 23.1384 7.85068 23.3566 7.68025 23.6221C7.50981 23.8876 7.40912 24.1918 7.3875 24.5065C7.35692 26.0845 7.66781 27.6504 8.29889 29.097C8.92996 30.5436 9.8663 31.8368 11.0437 32.8877C10.8251 33.1416 10.6785 33.4494 10.6191 33.7792C10.5598 34.1089 10.5898 34.4486 10.7062 34.7627C11.7921 37.6579 13.9179 40.0444 16.6687 41.4565C13.7377 42.5595 10.6317 43.1248 7.5 43.1252C7.0908 43.1294 6.69421 43.2673 6.37073 43.518C6.04725 43.7686 5.81465 44.1182 5.70842 44.5134C5.60218 44.9086 5.62815 45.3277 5.78236 45.7067C5.93657 46.0858 6.21055 46.404 6.5625 46.6127C11.3632 49.5632 16.8661 51.1752 22.5 51.2815C29.0949 51.206 35.4583 48.8396 40.5 44.5877C43.9812 41.8158 46.761 38.2633 48.6144 34.2176C50.4679 30.172 51.3429 25.7468 51.1688 21.3002C52.5893 20.2381 53.6495 18.7655 54.2062 17.0815C54.3328 16.7738 54.3752 16.4379 54.329 16.1084C54.2829 15.7789 54.1499 15.4676 53.9437 15.2065Z" fill="#F5F7FF"/>
</svg>
