<svg width="56" height="56" viewBox="0 0 56 56" fill="none" xmlns="http://www.w3.org/2000/svg">
<path d="M27.9356 14.1787C22.8075 14.1787 17.6813 13.588 12.705 12.4218C12.2006 12.3037 11.8875 11.8012 12.0056 11.2949C12.1238 10.7924 12.615 10.4793 13.1344 10.5955C23.9963 13.1418 35.5406 12.8212 46.2806 9.66178C46.7869 9.51928 47.3006 9.79866 47.445 10.2955C47.5913 10.7943 47.3081 11.3137 46.8113 11.4599C40.6781 13.2637 34.3275 14.1787 27.9356 14.1787Z" fill="#3C60FC"/>
<path d="M46.545 46.4287C46.4568 46.4287 46.3687 46.4156 46.2787 46.3894C34.3556 42.8812 21.5156 42.8812 9.59246 46.3894C9.08809 46.53 8.57246 46.2525 8.42809 45.7556C8.28184 45.2569 8.56496 44.7375 9.06184 44.5912C21.3337 40.98 34.5393 40.98 46.8112 44.5912C47.3081 44.7375 47.5912 45.2569 47.445 45.7556C47.325 46.1663 46.95 46.4287 46.545 46.4287Z" fill="#3C60FC"/>
<path d="M26.79 54.4481C26.6062 54.4481 26.4244 54.3956 26.2612 54.2849C17.5106 48.3131 12.2869 38.4937 12.2869 28.0181C12.2869 19.5299 15.6262 11.5406 21.6937 5.52181C22.0631 5.15244 22.6575 5.15994 23.0194 5.52556C23.385 5.89306 23.3812 6.48744 23.0156 6.85119C17.3062 12.5156 14.1619 20.0324 14.1619 28.0181C14.1619 37.8731 19.08 47.1149 27.3206 52.7362C27.7481 53.0268 27.8569 53.6118 27.5662 54.0393C27.3825 54.3056 27.0881 54.4481 26.79 54.4481Z" fill="#3C60FC"/>
<path d="M29.1618 54.448C28.8637 54.448 28.5693 54.3055 28.3875 54.0393C28.0968 53.6099 28.2056 53.0268 28.6331 52.7362C36.8737 47.1149 41.7918 37.873 41.7918 28.018C41.7918 18.163 36.8737 8.92117 28.6331 3.29992C28.2056 3.0093 28.0968 2.4243 28.3875 1.9968C28.68 1.5693 29.265 1.4643 29.6906 1.75117C38.4412 7.72305 43.665 17.5424 43.665 28.018C43.665 38.4937 38.4412 48.313 29.6906 54.2849C29.5293 54.3937 29.3456 54.448 29.1618 54.448Z" fill="#3C60FC"/>
<path d="M27.9356 54.1687C27.4181 54.1687 26.9981 53.7487 26.9981 53.2312V2.80493C26.9981 2.28743 27.4181 1.86743 27.9356 1.86743C28.4531 1.86743 28.8731 2.28743 28.8731 2.80493V53.2312C28.8731 53.7506 28.4531 54.1687 27.9356 54.1687Z" fill="#3C60FC"/>
<path d="M54.0862 28.9556H5.53497C5.01747 28.9556 4.59747 28.5356 4.59747 28.0181C4.59747 27.5006 5.01747 27.0806 5.53497 27.0806H54.0881C54.6056 27.0806 55.0256 27.5006 55.0256 28.0181C55.0256 28.5356 54.6056 28.9556 54.0862 28.9556Z" fill="#3C60FC"/>
<path d="M27.9356 55.2056C12.945 55.2056 0.748108 43.0087 0.748108 28.0181C0.748108 21.4162 3.14436 15.0449 7.49811 10.0837C7.83936 9.69369 8.42998 9.65619 8.82186 9.99744C9.20998 10.3387 9.24748 10.9312 8.90811 11.3212C4.85623 15.9393 2.62311 21.8699 2.62311 28.0181C2.62311 41.9756 13.9781 53.3306 27.9356 53.3306C41.8931 53.3306 53.2481 41.9756 53.2481 28.0181C53.2481 14.0606 41.8931 2.70557 27.9356 2.70557C22.1644 2.70557 16.7306 4.59557 12.225 8.17119C11.82 8.49369 11.2312 8.42807 10.9087 8.01932C10.5862 7.61432 10.6537 7.02557 11.0606 6.70307C15.9 2.86119 21.735 0.830566 27.9356 0.830566C42.9262 0.830566 55.1231 13.0274 55.1231 28.0181C55.1231 43.0087 42.9262 55.2056 27.9356 55.2056Z" fill="#3C60FC"/>
</svg>
