<svg width="50" height="50" viewBox="0 0 50 50" fill="none" xmlns="http://www.w3.org/2000/svg">
<path fill-rule="evenodd" clip-rule="evenodd" d="M40.9047 9.44892C36.8026 5.34216 31.3475 3.07953 25.5354 3.07715C13.56 3.07715 3.81317 12.8231 3.80849 24.8023C3.80682 28.6317 4.80729 32.3694 6.70867 35.6642L3.62628 46.9229L15.144 43.9016C18.3174 45.6325 21.8904 46.5449 25.5268 46.5461H25.5356C25.5349 46.5461 25.5363 46.5461 25.5356 46.5461C37.5098 46.5461 47.2574 36.7991 47.2624 24.8197C47.2646 19.0142 45.0067 13.5555 40.9047 9.44892ZM25.5355 42.8768H25.5282C22.2879 42.8755 19.1097 42.0049 16.337 40.3596L15.6777 39.9683L8.84289 41.7611L10.6673 35.0973L10.2379 34.414C8.43023 31.5389 7.47552 28.2157 7.47693 24.8036C7.48081 14.8469 15.582 6.74665 25.5428 6.74665C30.3662 6.74815 34.9003 8.62907 38.3098 12.0425C41.7193 15.4558 43.5959 19.993 43.5939 24.8182C43.5899 34.7756 35.4889 42.8768 25.5355 42.8768Z" fill="#F5F7FF"/>
<path fill-rule="evenodd" clip-rule="evenodd" d="M35.441 29.352C34.8981 29.0802 32.229 27.7671 31.7314 27.5858C31.2338 27.4046 30.8719 27.3141 30.51 27.8575C30.1482 28.4009 29.1077 29.6238 28.791 29.9862C28.4744 30.3483 28.1576 30.3939 27.6149 30.1219C27.072 29.8502 25.3228 29.277 23.2493 27.4275C21.6353 25.9879 20.5458 24.2102 20.229 23.6666C19.9124 23.1232 20.1953 22.8295 20.4672 22.5587C20.7114 22.3154 21.0101 21.9247 21.2815 21.6076C21.5529 21.2907 21.6434 21.0641 21.8244 20.702C22.0054 20.3397 21.915 20.0226 21.7791 19.751C21.6434 19.4792 20.5577 16.8071 20.1054 15.72C19.6646 14.6615 19.2171 14.8049 18.8838 14.7881C18.5676 14.7723 18.2052 14.769 17.8434 14.769C17.4815 14.769 16.8933 14.9049 16.3958 15.4483C15.8982 15.9919 14.4956 17.3053 14.4956 19.9772C14.4956 22.6494 16.4409 25.2308 16.7124 25.593C16.9837 25.9555 20.5405 31.4387 25.9863 33.7903C27.2815 34.3497 28.2927 34.6837 29.0811 34.9338C30.3816 35.3471 31.5651 35.2887 32.5005 35.1489C33.5436 34.9931 35.7124 33.8357 36.1648 32.5677C36.6172 31.2995 36.6172 30.2124 36.4814 29.9861C36.3458 29.7597 35.9838 29.6238 35.441 29.352Z" fill="#F5F7FF"/>
</svg>
