<svg width="393" height="76" viewBox="0 0 393 76" fill="none" xmlns="http://www.w3.org/2000/svg">
<g filter="url(#filter0_i_15_32)">
<path d="M22.6367 64.7422C19.5195 64.7422 16.724 64.2474 14.25 63.2578C11.776 62.2435 9.67318 60.8457 7.94141 59.0645C6.23438 57.2832 4.92318 55.2174 4.00781 52.8672C3.09245 50.4922 2.63477 47.9688 2.63477 45.2969V43.8125C2.63477 40.7695 3.06771 37.9863 3.93359 35.4629C4.79948 32.9395 6.03646 30.75 7.64453 28.8945C9.27734 27.0391 11.2565 25.6165 13.582 24.627C15.9076 23.6126 18.5299 23.1055 21.4492 23.1055C24.2943 23.1055 26.8177 23.5755 29.0195 24.5156C31.2214 25.4557 33.0645 26.7917 34.5488 28.5234C36.0579 30.2552 37.196 32.3333 37.9629 34.7578C38.7298 37.1576 39.1133 39.8294 39.1133 42.7734V47.2266H7.19922V40.1016H28.6113V39.2852C28.6113 37.8008 28.3392 36.4772 27.7949 35.3145C27.2754 34.127 26.4837 33.1868 25.4199 32.4941C24.3561 31.8014 22.9954 31.4551 21.3379 31.4551C19.9277 31.4551 18.7155 31.7643 17.7012 32.3828C16.6868 33.0013 15.8581 33.8672 15.2148 34.9805C14.5964 36.0938 14.1263 37.4049 13.8047 38.9141C13.5078 40.3984 13.3594 42.0312 13.3594 43.8125V45.2969C13.3594 46.9049 13.582 48.3893 14.0273 49.75C14.4974 51.1107 15.153 52.2858 15.9941 53.2754C16.86 54.265 17.8991 55.0319 19.1113 55.5762C20.3483 56.1204 21.7461 56.3926 23.3047 56.3926C25.2344 56.3926 27.028 56.0215 28.6855 55.2793C30.3678 54.5124 31.8151 53.362 33.0273 51.8281L38.2227 57.4688C37.3815 58.681 36.2311 59.8438 34.7715 60.957C33.3366 62.0703 31.6048 62.9857 29.5762 63.7031C27.5475 64.3958 25.2344 64.7422 22.6367 64.7422ZM77.1504 55.6504V64H46.6465V55.6504H77.1504ZM76.5566 30.0078L50.9512 64H43.7891V57.6543L69.2832 23.8477H76.5566V30.0078ZM72.7715 23.8477V32.2344H44.3828V23.8477H72.7715ZM101.754 64.7422C98.6367 64.7422 95.8411 64.2474 93.3672 63.2578C90.8932 62.2435 88.7904 60.8457 87.0586 59.0645C85.3516 57.2832 84.0404 55.2174 83.125 52.8672C82.2096 50.4922 81.752 47.9688 81.752 45.2969V43.8125C81.752 40.7695 82.1849 37.9863 83.0508 35.4629C83.9167 32.9395 85.1536 30.75 86.7617 28.8945C88.3945 27.0391 90.3737 25.6165 92.6992 24.627C95.0247 23.6126 97.6471 23.1055 100.566 23.1055C103.411 23.1055 105.935 23.5755 108.137 24.5156C110.339 25.4557 112.182 26.7917 113.666 28.5234C115.175 30.2552 116.313 32.3333 117.08 34.7578C117.847 37.1576 118.23 39.8294 118.23 42.7734V47.2266H86.3164V40.1016H107.729V39.2852C107.729 37.8008 107.456 36.4772 106.912 35.3145C106.393 34.127 105.601 33.1868 104.537 32.4941C103.473 31.8014 102.113 31.4551 100.455 31.4551C99.0449 31.4551 97.8327 31.7643 96.8184 32.3828C95.804 33.0013 94.9753 33.8672 94.332 34.9805C93.7135 36.0938 93.2435 37.4049 92.9219 38.9141C92.625 40.3984 92.4766 42.0312 92.4766 43.8125V45.2969C92.4766 46.9049 92.6992 48.3893 93.1445 49.75C93.6146 51.1107 94.2702 52.2858 95.1113 53.2754C95.9772 54.265 97.0163 55.0319 98.2285 55.5762C99.4655 56.1204 100.863 56.3926 102.422 56.3926C104.352 56.3926 106.145 56.0215 107.803 55.2793C109.485 54.5124 110.932 53.362 112.145 51.8281L117.34 57.4688C116.499 58.681 115.348 59.8438 113.889 60.957C112.454 62.0703 110.722 62.9857 108.693 63.7031C106.665 64.3958 104.352 64.7422 101.754 64.7422ZM134.781 32.4199V64H124.094V23.8477H134.113L134.781 32.4199ZM133.223 42.5137H130.328C130.328 39.5449 130.712 36.873 131.479 34.498C132.245 32.0983 133.322 30.0573 134.707 28.375C136.092 26.668 137.738 25.3691 139.643 24.4785C141.572 23.5632 143.725 23.1055 146.1 23.1055C147.98 23.1055 149.699 23.3776 151.258 23.9219C152.816 24.4661 154.152 25.332 155.266 26.5195C156.404 27.707 157.27 29.278 157.863 31.2324C158.482 33.1868 158.791 35.5742 158.791 38.3945V64H148.029V38.3574C148.029 36.5762 147.782 35.1908 147.287 34.2012C146.792 33.2116 146.062 32.5189 145.098 32.123C144.158 31.7025 142.995 31.4922 141.609 31.4922C140.174 31.4922 138.925 31.7767 137.861 32.3457C136.822 32.9147 135.956 33.7064 135.264 34.7207C134.596 35.7103 134.089 36.873 133.742 38.209C133.396 39.5449 133.223 40.9798 133.223 42.5137ZM188.59 54.9453V37.0586C188.59 35.7721 188.38 34.6712 187.959 33.7559C187.538 32.8158 186.883 32.0859 185.992 31.5664C185.126 31.0469 184.001 30.7871 182.615 30.7871C181.428 30.7871 180.401 30.9974 179.535 31.418C178.669 31.8138 178.001 32.3952 177.531 33.1621C177.061 33.9043 176.826 34.7826 176.826 35.7969H166.139C166.139 34.0898 166.535 32.4694 167.326 30.9355C168.118 29.4017 169.268 28.0534 170.777 26.8906C172.286 25.7031 174.08 24.7754 176.158 24.1074C178.261 23.4395 180.611 23.1055 183.209 23.1055C186.326 23.1055 189.097 23.625 191.521 24.6641C193.946 25.7031 195.851 27.2617 197.236 29.3398C198.646 31.418 199.352 34.0156 199.352 37.1328V54.3145C199.352 56.5163 199.488 58.3223 199.76 59.7324C200.032 61.1178 200.428 62.3301 200.947 63.3691V64H190.148C189.629 62.9115 189.233 61.5508 188.961 59.918C188.714 58.2604 188.59 56.6029 188.59 54.9453ZM190 39.5449L190.074 45.5938H184.1C182.689 45.5938 181.465 45.7546 180.426 46.0762C179.387 46.3978 178.533 46.8555 177.865 47.4492C177.197 48.0182 176.702 48.6862 176.381 49.4531C176.084 50.2201 175.936 51.0612 175.936 51.9766C175.936 52.8919 176.146 53.7207 176.566 54.4629C176.987 55.1803 177.593 55.7493 178.385 56.1699C179.176 56.5658 180.104 56.7637 181.168 56.7637C182.776 56.7637 184.174 56.4421 185.361 55.7988C186.549 55.1556 187.464 54.3639 188.107 53.4238C188.775 52.4837 189.122 51.5931 189.146 50.752L191.967 55.2793C191.571 56.2936 191.027 57.3451 190.334 58.4336C189.666 59.5221 188.812 60.5488 187.773 61.5137C186.734 62.4538 185.485 63.2331 184.025 63.8516C182.566 64.4453 180.834 64.7422 178.83 64.7422C176.282 64.7422 173.969 64.235 171.891 63.2207C169.837 62.1816 168.204 60.7591 166.992 58.9531C165.805 57.1224 165.211 55.0443 165.211 52.7188C165.211 50.6159 165.607 48.748 166.398 47.1152C167.19 45.4824 168.353 44.1094 169.887 42.9961C171.445 41.8581 173.387 41.0046 175.713 40.4355C178.038 39.8418 180.735 39.5449 183.803 39.5449H190ZM218.277 32.6055V64H207.59V23.8477H217.646L218.277 32.6055ZM230.375 23.5879L230.189 33.4961C229.67 33.4219 229.039 33.36 228.297 33.3105C227.579 33.2363 226.924 33.1992 226.33 33.1992C224.821 33.1992 223.51 33.3971 222.396 33.793C221.308 34.1641 220.393 34.7207 219.65 35.4629C218.933 36.2051 218.389 37.1081 218.018 38.1719C217.671 39.2357 217.473 40.4479 217.424 41.8086L215.271 41.1406C215.271 38.543 215.531 36.1556 216.051 33.9785C216.57 31.7767 217.325 29.8594 218.314 28.2266C219.329 26.5938 220.566 25.332 222.025 24.4414C223.485 23.5508 225.155 23.1055 227.035 23.1055C227.629 23.1055 228.235 23.1549 228.854 23.2539C229.472 23.3281 229.979 23.4395 230.375 23.5879ZM258.393 55.2422V7H269.154V64H259.469L258.393 55.2422ZM233.01 44.4062V43.627C233.01 40.5592 233.356 37.776 234.049 35.2773C234.742 32.7539 235.756 30.5892 237.092 28.7832C238.428 26.9772 240.073 25.5794 242.027 24.5898C243.982 23.6003 246.208 23.1055 248.707 23.1055C251.057 23.1055 253.111 23.6003 254.867 24.5898C256.648 25.5794 258.158 26.9896 259.395 28.8203C260.656 30.6263 261.671 32.7663 262.438 35.2402C263.204 37.6895 263.761 40.3737 264.107 43.293V45C263.761 47.7956 263.204 50.3932 262.438 52.793C261.671 55.1927 260.656 57.2956 259.395 59.1016C258.158 60.8828 256.648 62.2682 254.867 63.2578C253.086 64.2474 251.008 64.7422 248.633 64.7422C246.134 64.7422 243.908 64.235 241.953 63.2207C240.023 62.2064 238.391 60.7839 237.055 58.9531C235.743 57.1224 234.742 54.9701 234.049 52.4961C233.356 50.0221 233.01 47.3255 233.01 44.4062ZM243.697 43.627V44.4062C243.697 46.0638 243.821 47.61 244.068 49.0449C244.34 50.4798 244.773 51.7539 245.367 52.8672C245.986 53.9557 246.777 54.8092 247.742 55.4277C248.732 56.0215 249.932 56.3184 251.342 56.3184C253.173 56.3184 254.682 55.9102 255.869 55.0938C257.057 54.2526 257.96 53.1022 258.578 51.6426C259.221 50.1829 259.592 48.5007 259.691 46.5957V41.7344C259.617 40.1758 259.395 38.778 259.023 37.541C258.677 36.2793 258.158 35.2031 257.465 34.3125C256.797 33.4219 255.956 32.7292 254.941 32.2344C253.952 31.7396 252.777 31.4922 251.416 31.4922C250.031 31.4922 248.843 31.8138 247.854 32.457C246.864 33.0755 246.06 33.929 245.441 35.0176C244.848 36.1061 244.402 37.3926 244.105 38.877C243.833 40.3366 243.697 41.9199 243.697 43.627ZM288.191 32.6055V64H277.504V23.8477H287.561L288.191 32.6055ZM300.289 23.5879L300.104 33.4961C299.584 33.4219 298.953 33.36 298.211 33.3105C297.493 33.2363 296.838 33.1992 296.244 33.1992C294.735 33.1992 293.424 33.3971 292.311 33.793C291.222 34.1641 290.307 34.7207 289.564 35.4629C288.847 36.2051 288.303 37.1081 287.932 38.1719C287.585 39.2357 287.387 40.4479 287.338 41.8086L285.186 41.1406C285.186 38.543 285.445 36.1556 285.965 33.9785C286.484 31.7767 287.239 29.8594 288.229 28.2266C289.243 26.5938 290.48 25.332 291.939 24.4414C293.399 23.5508 295.069 23.1055 296.949 23.1055C297.543 23.1055 298.149 23.1549 298.768 23.2539C299.386 23.3281 299.893 23.4395 300.289 23.5879Z" fill="url(#paint0_linear_15_32)" style="mix-blend-mode:screen"/>
<g clip-path="url(#clip0_15_32)">
<path d="M329.486 61C328.344 61 327.201 60.6288 326.313 59.8865L323.447 57.4828C323.157 57.2353 322.432 56.9879 322.051 56.9879H318.932C316.248 56.9879 314.071 54.867 314.071 52.2512V49.2288C314.071 48.8577 313.817 48.1684 313.564 47.8856L311.115 45.0753C309.628 43.3609 309.628 40.6567 311.115 38.9423L313.564 36.1321C313.817 35.8493 314.071 35.16 314.071 34.7888V31.7488C314.071 29.133 316.248 27.0121 318.932 27.0121H322.069C322.45 27.0121 323.175 26.747 323.465 26.5172L326.331 24.1135C328.108 22.6288 330.883 22.6288 332.66 24.1135L335.525 26.5172C335.816 26.7647 336.541 27.0121 336.922 27.0121H340.005C342.689 27.0121 344.865 29.133 344.865 31.7488V34.7535C344.865 35.1247 345.137 35.8316 345.391 36.1144L347.857 38.907C349.381 40.6391 349.381 43.3433 347.857 45.0753L345.391 47.8679C345.137 48.1507 344.865 48.8577 344.865 49.2288V52.2335C344.865 54.8493 342.689 56.9702 340.005 56.9702H336.922C336.541 56.9702 335.816 57.2353 335.525 57.4651L332.66 59.8688C331.771 60.6288 330.629 61 329.486 61ZM318.932 29.6633C317.753 29.6633 316.792 30.6 316.792 31.7488V34.7712C316.792 35.7786 316.302 37.0688 315.631 37.8288L313.183 40.6391C312.548 41.3637 312.548 42.6186 313.183 43.3433L315.631 46.1535C316.302 46.9312 316.792 48.2037 316.792 49.2112V52.2335C316.792 53.3823 317.753 54.3191 318.932 54.3191H322.069C323.121 54.3191 324.445 54.7963 325.243 55.4679L328.108 57.8716C328.852 58.4902 330.157 58.4902 330.901 57.8716L333.766 55.4679C334.564 54.814 335.888 54.3191 336.94 54.3191H340.023C341.202 54.3191 342.163 53.3823 342.163 52.2335V49.2288C342.163 48.2037 342.653 46.9135 343.342 46.1358L345.808 43.3433C346.443 42.6186 346.443 41.346 345.808 40.6214L343.342 37.8288C342.653 37.0512 342.163 35.7609 342.163 34.7358V31.7488C342.163 30.6 341.202 29.6633 340.023 29.6633H336.94C335.888 29.6633 334.564 29.186 333.766 28.5144L330.901 26.1107C330.157 25.4921 328.852 25.4921 328.108 26.1107L325.243 28.5321C324.445 29.186 323.103 29.6633 322.069 29.6633H318.932Z" fill="url(#paint1_angular_15_32)"/>
<path d="M326.394 49.4207C325.873 49.4207 325.378 49.2384 325.013 48.9194L318.712 43.404C317.957 42.7431 317.957 41.6491 318.712 40.9882C319.467 40.3273 320.717 40.3273 321.472 40.9882L326.394 45.2956L337.591 35.4957C338.346 34.8348 339.596 34.8348 340.351 35.4957C341.106 36.1566 341.106 37.2506 340.351 37.9114L327.774 48.9194C327.409 49.2384 326.914 49.4207 326.394 49.4207Z" fill="url(#paint2_linear_15_32)"/>
</g>
</g>
<defs>
<filter id="filter0_i_15_32" x="0" y="0" width="393" height="80" filterUnits="userSpaceOnUse" color-interpolation-filters="sRGB">
<feFlood flood-opacity="0" result="BackgroundImageFix"/>
<feBlend mode="normal" in="SourceGraphic" in2="BackgroundImageFix" result="shape"/>
<feColorMatrix in="SourceAlpha" type="matrix" values="0 0 0 0 0 0 0 0 0 0 0 0 0 0 0 0 0 0 127 0" result="hardAlpha"/>
<feOffset dy="4"/>
<feGaussianBlur stdDeviation="2"/>
<feComposite in2="hardAlpha" operator="arithmetic" k2="-1" k3="1"/>
<feColorMatrix type="matrix" values="0 0 0 0 0 0 0 0 0 0 0 0 0 0 0 0 0 0 0.25 0"/>
<feBlend mode="normal" in2="shape" result="effect1_innerShadow_15_32"/>
</filter>
<linearGradient id="paint0_linear_15_32" x1="4.80426e-09" y1="47.1042" x2="392.998" y2="45.7604" gradientUnits="userSpaceOnUse">
<stop offset="0.0572917" stop-color="#3C60FC"/>
<stop offset="0.262257" stop-color="#E04574" stop-opacity="0.67"/>
<stop offset="0.402414" stop-color="#00979F"/>
<stop offset="0.568061" stop-color="#009868"/>
<stop offset="0.77701" stop-color="#0094D4"/>
<stop offset="0.913339" stop-color="#007DFF"/>
</linearGradient>
<radialGradient id="paint1_angular_15_32" cx="0" cy="0" r="1" gradientUnits="userSpaceOnUse" gradientTransform="translate(329.5 42) rotate(90) scale(19 19.5)">
<stop offset="0.0572917" stop-color="#3C60FC"/>
<stop offset="0.21875" stop-color="#E04574" stop-opacity="0.84375"/>
<stop offset="0.3125" stop-color="#00979F" stop-opacity="0.6875"/>
<stop offset="0.5" stop-color="#009868" stop-opacity="0.5"/>
<stop offset="0.645833" stop-color="#0094D4" stop-opacity="0.59"/>
<stop offset="0.828125" stop-color="#007DFF" stop-opacity="0.94"/>
</radialGradient>
<linearGradient id="paint2_linear_15_32" x1="329.532" y1="35" x2="329.532" y2="49.4207" gradientUnits="userSpaceOnUse">
<stop stop-color="#3C60FC"/>
<stop offset="0.125" stop-color="#E04574" stop-opacity="0.84375"/>
<stop offset="0.25" stop-color="#009868"/>
<stop offset="0.427083" stop-color="#009868" stop-opacity="0.5"/>
<stop offset="0.645833" stop-color="#00979F"/>
<stop offset="1" stop-opacity="0"/>
</linearGradient>
<clipPath id="clip0_15_32">
<rect width="42" height="41" fill="white" transform="translate(310 23)"/>
</clipPath>
</defs>
</svg>
